<?xml version="1.0" ?><svg id="Layer_1" style="enable-background:new 0 0 128 128;" version="1.1" viewBox="0 0 128 128" xml:space="preserve" xmlns="http://www.w3.org/2000/svg" xmlns:xlink="http://www.w3.org/1999/xlink"><style type="text/css">
	.st0{fill:#7DCEDC;}
	.st1{fill:#FFFFFF;}
	.st2{fill:#474F59;}
	.st3{fill:#FDDA7F;}
	.st4{fill:#F6BB53;}
	.st5{fill:#F3F3F3;}
	.st6{fill:#F37C5A;}
	.st7{fill:#25313B;}
	.st8{fill:#DB674C;}
	.st9{fill:#DAD9D8;}
	.st10{fill:#55C5CA;}
	.st11{fill:none;}
	.st12{fill:#C2594D;}
	.st13{fill:#51B7B4;}
	.st14{fill:#CC604A;}
	.st15{fill:#222C34;}
	.st16{fill:#EE6E51;}
	.st17{fill:#EA765C;}
	.st18{fill:#212A30;}
	.st19{fill:#CF634E;}
	.st20{fill:#ECB459;}
	.st21{fill:#424850;}
	.st22{fill:#C56354;}
	.st23{fill:#F7F8F8;}
	.st24{fill:#CD634F;}
	.st25{fill:#010101;}
	.st26{fill:#EAB154;}
	.st27{fill:#F9D480;}
	.st28{fill:#CD624C;}
	.st29{fill:#404850;}
</style><g><g><g><path class="st5" d="M128,64c0,20.5-9.6,38.7-24.6,50.5C92.5,122.9,78.8,128,64,128c-2,0-4-0.1-6-0.3C25.5,124.7,0,97.3,0,64     C0,28.7,28.6,0,64,0C99.3,0,128,28.7,128,64z"/></g><g><g><rect class="st2" height="14.3" width="120.9" x="3.5" y="103.8"/></g><g><g><g><rect class="st1" height="5.7" width="0.6" x="16.9" y="103.8"/></g><g><rect class="st1" height="2.4" width="0.6" x="22.6" y="103.8"/></g></g><g><g><rect class="st1" height="5.7" width="0.6" x="28.7" y="103.8"/></g><g><rect class="st1" height="2.4" width="0.6" x="34.4" y="103.8"/></g></g><g><g><rect class="st1" height="5.7" width="0.6" x="40.4" y="103.8"/></g><g><rect class="st1" height="2.4" width="0.6" x="46.2" y="103.8"/></g></g><g><g><rect class="st1" height="5.7" width="0.6" x="52.2" y="103.8"/></g><g><rect class="st1" height="2.4" width="0.6" x="58" y="103.8"/></g></g><g><g><rect class="st1" height="5.7" width="0.6" x="64" y="103.8"/></g><g><rect class="st1" height="2.4" width="0.6" x="69.8" y="103.8"/></g></g><g><g><rect class="st1" height="5.7" width="0.6" x="75.8" y="103.8"/></g><g><rect class="st1" height="2.4" width="0.6" x="81.5" y="103.8"/></g></g><g><g><rect class="st1" height="5.7" width="0.6" x="87.6" y="103.8"/></g><g><rect class="st1" height="2.4" width="0.6" x="93.3" y="103.8"/></g></g><g><g><rect class="st1" height="5.7" width="0.6" x="99.3" y="103.8"/></g><g><rect class="st1" height="2.4" width="0.6" x="105.1" y="103.8"/></g></g><g><g><rect class="st1" height="5.7" width="0.6" x="111.1" y="103.8"/></g><g><rect class="st1" height="2.4" width="0.6" x="116.9" y="103.8"/></g></g></g><g><circle class="st1" cx="8.7" cy="110.9" r="1.9"/></g></g><g><g><path class="st6" d="M94.9,58.5v16.7H77.4c0,0.2,0,0.4,0,0.6c0,9.5,7.7,17.2,17.2,17.2s17.2-7.7,17.2-17.2      C111.9,66.3,104.3,58.6,94.9,58.5z"/></g><g><path class="st0" d="M94.6,58.5c0.1,0,0.2,0,0.3,0V33.6L53.3,75.1h24.1C77.7,65.9,85.3,58.5,94.6,58.5z"/></g><g><path class="st2" d="M94.9,58.5c-0.1,0-0.2,0-0.3,0c-9.3,0-16.9,7.4-17.2,16.7h17.5V58.5z"/></g></g><g><g><g><g><path class="st2" d="M83.3,32.6h-1.2v-3.2c0.9,0,1.6-0.1,1.9-0.3c0.3-0.2,0.5-0.6,0.5-1.2v-8.1c0-1.6,0.8-2.5,2.3-2.8        c-1.5-0.3-2.3-1.2-2.3-2.8V6.7c0-0.7-0.2-1.2-0.6-1.5c-0.4-0.3-0.7-0.5-1.1-0.5h-0.1l-0.6,0.1V1.6h1.2c3.1,0,4.7,1.5,4.7,4.5        v7.1c0,0.8,0.1,1.3,0.4,1.6c0.3,0.3,0.7,0.5,1.3,0.5h0.8v3.2h-0.8c-0.6,0-1,0.2-1.3,0.5c-0.3,0.3-0.4,0.8-0.4,1.6v7.4        C87.9,31.1,86.4,32.6,83.3,32.6z"/></g></g><g><g><path class="st2" d="M43.5,28.1v-7.4c0-0.8-0.1-1.3-0.4-1.6c-0.3-0.3-0.7-0.5-1.3-0.5H41v-3.2h0.8c0.6,0,1-0.2,1.3-0.5        c0.3-0.3,0.4-0.9,0.4-1.6V6.2c0-3,1.6-4.5,4.7-4.5h1.2v3.2l-0.6-0.1h-0.1c-0.4,0-0.7,0.2-1.1,0.5C47.2,5.5,47,6,47,6.7v7.5        c0,1.6-0.8,2.5-2.3,2.8c1.5,0.3,2.3,1.2,2.3,2.8v8.1c0,0.6,0.2,1,0.5,1.2c0.3,0.2,1,0.3,1.9,0.3v3.2h-1.2        C45.1,32.6,43.5,31.1,43.5,28.1z"/></g></g></g><g><g><rect class="st2" height="2" width="27" x="52.2" y="8.9"/></g><g><rect class="st2" height="2" width="27" x="52.2" y="16.2"/></g><g><rect class="st2" height="2" width="14.5" x="52.2" y="23.4"/></g></g></g><g><g><path class="st8" d="M24.5,92.3C38.8,89.6,49.6,77.1,49.6,62S38.8,34.4,24.5,31.8v-4.9H14.3v70.2h10.1V92.3z M24.5,40.6      C34,43.1,41.1,51.7,41.1,62c0,10.3-7.1,19-16.6,21.5V40.6z"/></g><g><g><g><rect class="st1" height="3.7" transform="matrix(4.720319e-011 -1 1 4.720319e-011 -78.8256 111.2518)" width="0.4" x="16" y="93.2"/></g><g><rect class="st1" height="1.6" transform="matrix(4.720319e-011 -1 1 4.720319e-011 -76.0833 106.3941)" width="0.4" x="14.9" y="90.4"/></g></g><g><g><rect class="st1" height="3.7" transform="matrix(4.720319e-011 -1 1 4.720319e-011 -71.052 103.4782)" width="0.4" x="16" y="85.4"/></g><g><rect class="st1" height="1.6" transform="matrix(4.720319e-011 -1 1 4.720319e-011 -68.3097 98.6206)" width="0.4" x="14.9" y="82.7"/></g></g><g><g><rect class="st1" height="3.7" transform="matrix(5.149398e-011 -1 1 5.149398e-011 -63.2784 95.7046)" width="0.4" x="16" y="77.6"/></g><g><rect class="st1" height="1.6" transform="matrix(4.291151e-011 -1 1 4.291151e-011 -60.5361 90.847)" width="0.4" x="14.9" y="74.9"/></g></g><g><g><rect class="st1" height="3.7" transform="matrix(4.720319e-011 -1 1 4.720319e-011 -55.5049 87.9311)" width="0.4" x="16" y="69.9"/></g><g><rect class="st1" height="1.6" transform="matrix(4.720319e-011 -1 1 4.720319e-011 -52.7626 83.0734)" width="0.4" x="14.9" y="67.1"/></g></g><g><g><rect class="st1" height="3.7" transform="matrix(4.720319e-011 -1 1 4.720319e-011 -47.7313 80.1575)" width="0.4" x="16" y="62.1"/></g><g><rect class="st1" height="1.6" transform="matrix(4.720319e-011 -1 1 4.720319e-011 -44.989 75.2999)" width="0.4" x="14.9" y="59.3"/></g></g><g><g><rect class="st1" height="3.7" transform="matrix(4.720319e-011 -1 1 4.720319e-011 -39.9577 72.3839)" width="0.4" x="16" y="54.3"/></g><g><rect class="st1" height="1.6" transform="matrix(4.291151e-011 -1 1 4.291151e-011 -37.2154 67.5263)" width="0.4" x="14.9" y="51.6"/></g></g><g><g><rect class="st1" height="3.7" transform="matrix(4.291151e-011 -1 1 4.291151e-011 -32.1841 64.6104)" width="0.4" x="16" y="46.5"/></g><g><rect class="st1" height="1.6" transform="matrix(4.291151e-011 -1 1 4.291151e-011 -29.4419 59.7527)" width="0.4" x="14.9" y="43.8"/></g></g><g><g><rect class="st1" height="3.7" transform="matrix(5.149398e-011 -1 1 5.149398e-011 -24.4106 56.8368)" width="0.4" x="16" y="38.8"/></g><g><rect class="st1" height="1.6" transform="matrix(4.291151e-011 -1 1 4.291151e-011 -21.6683 51.9791)" width="0.4" x="14.9" y="36"/></g></g><g><g><rect class="st1" height="3.7" transform="matrix(4.720319e-011 -1 1 4.720319e-011 -16.637 49.0632)" width="0.4" x="16" y="31"/></g><g><rect class="st1" height="1.6" transform="matrix(4.291151e-011 -1 1 4.291151e-011 -13.8947 44.2056)" width="0.4" x="14.9" y="28.2"/></g></g></g></g><g><g><path class="st4" d="M110,39.6c2,0,3.5-1.7,3.5-3.7c0-2-1.4-3.6-3.5-3.6c-2,0-3.5,1.7-3.5,3.7C106.5,37.9,107.9,39.6,110,39.6z       M109.9,34.4c0.8,0,1.3,0.8,1.3,1.6c0,0.8-0.5,1.6-1.3,1.6c-0.8,0-1.3-0.8-1.3-1.6C108.6,35.2,109.1,34.4,109.9,34.4z"/></g><g><polygon class="st4" points="118.8,32.7 107.1,48.7 110,48.7 121.8,32.7     "/></g><g><path class="st4" d="M119.1,41.6c-2,0-3.5,1.7-3.5,3.7c0,2,1.4,3.6,3.5,3.6c2,0,3.5-1.7,3.5-3.7      C122.5,43.3,121.1,41.6,119.1,41.6z M119.1,46.9c-0.8,0-1.3-0.8-1.3-1.6c0-0.8,0.5-1.6,1.3-1.6c0.8,0,1.3,0.8,1.3,1.6      C120.4,46.2,120,46.9,119.1,46.9z"/></g></g><g><path class="st4" d="M65.3,96.1v-4.4h-4.4v-2.2h4.4v-4.3h2.1v4.3h4.4v2.2h-4.4v4.4H65.3z"/></g><g><path class="st4" d="M58.2,40.5h11.6v2.2H58.2V40.5z M58.2,44.8h11.6v2.2H58.2V44.8z"/></g></g></g></svg>